<svg id="svg" version="1.1" width="400" height="318.0887372013652" viewBox="0 0 400 318.0887372013652" xmlns="http://www.w3.org/2000/svg" xmlns:xlink="http://www.w3.org/1999/xlink" ><g id="svgg"><path id="path0" d="M190.705 8.274 C 190.552 8.858,190.271 8.910,187.256 8.910 C 184.252 8.910,183.956 8.964,183.771 9.547 C 183.597 10.095,183.289 10.183,181.541 10.183 C 180.425 10.183,179.423 10.329,179.313 10.506 C 179.203 10.684,178.957 10.734,178.767 10.616 C 178.561 10.489,178.513 10.551,178.649 10.770 C 178.774 10.972,178.716 11.138,178.520 11.138 C 178.325 11.138,178.253 11.281,178.361 11.456 C 178.485 11.656,177.788 11.774,176.492 11.774 C 174.706 11.774,174.399 11.860,174.224 12.411 C 174.067 12.905,173.743 13.047,172.771 13.047 C 171.732 13.047,171.519 13.155,171.519 13.683 C 171.519 14.212,171.307 14.320,170.262 14.320 C 168.685 14.320,167.376 14.887,167.601 15.473 C 167.729 15.806,167.412 15.911,166.273 15.911 C 165.045 15.911,164.748 16.025,164.611 16.547 C 164.481 17.046,164.177 17.184,163.209 17.184 C 162.529 17.184,161.990 17.291,162.011 17.422 C 162.137 18.220,161.871 18.457,160.849 18.457 C 160.120 18.457,159.658 18.633,159.533 18.958 C 159.427 19.234,159.002 19.589,158.588 19.746 C 158.139 19.917,157.836 20.292,157.836 20.676 C 157.836 21.228,157.630 21.321,156.404 21.321 C 155.184 21.321,154.972 21.415,154.972 21.957 C 154.972 22.327,154.760 22.593,154.465 22.593 C 154.186 22.593,153.883 22.880,153.791 23.230 C 153.645 23.789,152.916 24.058,151.995 23.893 C 151.510 23.806,150.802 24.593,150.970 25.031 C 151.079 25.316,150.874 25.457,150.348 25.457 C 149.775 25.457,149.562 25.629,149.562 26.094 C 149.562 26.527,149.334 26.746,148.846 26.779 C 148.453 26.805,147.918 26.841,147.657 26.859 C 147.397 26.876,147.139 27.127,147.083 27.417 C 147.027 27.706,146.632 28.031,146.204 28.138 C 145.706 28.263,145.426 28.561,145.426 28.964 C 145.426 29.382,145.211 29.594,144.789 29.594 C 144.365 29.594,144.153 29.806,144.153 30.231 C 144.153 30.655,143.941 30.867,143.516 30.867 C 143.092 30.867,142.880 31.079,142.880 31.504 C 142.880 32.019,142.668 32.140,141.766 32.140 C 141.154 32.140,140.652 32.285,140.652 32.463 C 140.652 32.641,140.244 33.034,139.744 33.338 C 138.865 33.873,138.743 34.034,138.743 34.664 C 138.743 34.826,138.421 35.009,138.027 35.069 C 137.633 35.129,137.348 35.357,137.393 35.575 C 137.438 35.794,137.116 36.109,136.677 36.276 C 136.238 36.443,135.879 36.781,135.879 37.027 C 135.879 37.274,135.593 37.550,135.243 37.642 C 134.862 37.742,134.606 38.076,134.606 38.475 C 134.606 38.929,134.404 39.141,133.970 39.141 C 133.545 39.141,133.333 39.353,133.333 39.777 C 133.333 40.211,133.121 40.414,132.667 40.414 C 132.269 40.414,131.934 40.669,131.834 41.050 C 131.736 41.425,131.400 41.687,131.016 41.687 C 130.657 41.687,130.454 41.777,130.564 41.888 C 130.859 42.182,130.171 43.327,129.826 43.114 C 129.665 43.015,129.444 43.289,129.335 43.724 C 129.214 44.205,128.868 44.555,128.451 44.619 C 128.073 44.677,127.801 44.903,127.846 45.122 C 127.891 45.340,127.569 45.656,127.130 45.823 C 126.654 46.004,126.333 46.377,126.333 46.749 C 126.333 47.091,126.053 47.460,125.712 47.568 C 125.347 47.684,125.163 47.949,125.264 48.213 C 125.375 48.503,125.146 48.734,124.611 48.868 C 123.931 49.038,123.787 49.260,123.787 50.132 C 123.787 50.986,123.649 51.208,123.071 51.291 C 122.611 51.356,122.318 51.648,122.253 52.108 C 122.188 52.568,121.932 52.824,121.537 52.824 C 121.135 52.824,120.923 53.044,120.923 53.461 C 120.923 53.885,120.711 54.097,120.286 54.097 C 119.862 54.097,119.650 54.309,119.650 54.733 C 119.650 55.150,119.438 55.370,119.035 55.370 C 118.697 55.370,118.331 55.649,118.223 55.990 C 118.115 56.331,117.747 56.699,117.406 56.807 C 117.065 56.915,116.786 57.281,116.786 57.619 C 116.786 58.022,116.566 58.234,116.150 58.234 C 115.725 58.234,115.513 58.446,115.513 58.870 C 115.513 59.337,115.301 59.507,114.718 59.507 C 114.134 59.507,113.922 59.676,113.922 60.143 C 113.922 60.604,113.710 60.780,113.153 60.780 C 111.966 60.780,111.376 61.108,111.376 61.768 C 111.376 62.159,111.152 62.371,110.740 62.371 C 110.316 62.371,110.103 62.583,110.103 63.007 C 110.103 63.549,109.891 63.644,108.671 63.644 C 107.452 63.644,107.239 63.738,107.239 64.280 C 107.239 64.771,107.027 64.916,106.311 64.916 C 105.061 64.916,104.375 65.210,104.375 65.746 C 104.375 66.053,103.936 66.202,102.944 66.229 C 100.752 66.290,100.723 66.300,100.614 67.064 C 100.515 67.767,100.429 67.780,96.220 67.780 C 93.319 67.780,91.994 67.673,92.133 67.448 C 92.477 66.892,91.708 66.288,90.616 66.257 C 89.984 66.239,89.377 65.973,89.053 65.572 C 88.724 65.166,88.147 64.916,87.538 64.916 C 86.767 64.916,86.555 64.779,86.555 64.280 C 86.555 63.930,86.448 63.661,86.317 63.681 C 85.027 63.885,84.010 63.588,84.010 63.007 C 84.010 62.597,83.797 62.371,83.414 62.371 C 82.966 62.371,82.768 62.059,82.617 61.116 C 82.507 60.426,82.252 59.760,82.050 59.635 C 81.825 59.496,81.770 59.548,81.908 59.772 C 82.054 60.008,81.959 60.069,81.639 59.946 C 81.368 59.842,81.146 59.414,81.146 58.995 C 81.146 58.446,80.968 58.234,80.509 58.234 C 80.024 58.234,79.873 58.022,79.873 57.339 C 79.873 56.847,79.597 56.148,79.259 55.786 C 78.922 55.424,78.600 54.645,78.543 54.055 C 78.464 53.224,78.280 52.960,77.725 52.882 C 76.693 52.735,76.581 42.959,77.611 42.959 C 78.268 42.959,78.600 42.370,78.600 41.205 C 78.600 40.751,78.836 40.382,79.199 40.266 C 79.529 40.162,79.793 39.901,79.786 39.688 C 79.731 38.067,79.906 37.550,80.509 37.550 C 81.040 37.550,81.146 37.338,81.146 36.277 C 81.146 35.123,81.069 35.004,80.331 35.004 C 79.869 35.004,79.602 34.866,79.714 34.686 C 79.822 34.511,79.750 34.368,79.554 34.368 C 79.359 34.368,79.289 34.221,79.400 34.041 C 79.511 33.862,79.484 33.742,79.339 33.774 C 79.195 33.806,78.854 33.733,78.581 33.612 C 77.527 33.143,74.688 33.532,74.596 34.158 C 74.475 34.991,74.649 34.953,70.565 35.034 C 67.264 35.100,66.814 35.176,66.650 35.693 C 66.507 36.144,66.143 36.277,65.054 36.277 C 63.856 36.277,63.644 36.373,63.644 36.913 C 63.644 37.405,63.431 37.550,62.708 37.550 C 62.193 37.550,61.682 37.695,61.572 37.873 C 61.462 38.051,61.255 38.124,61.112 38.036 C 60.969 37.947,60.871 38.124,60.895 38.428 C 60.923 38.777,60.674 39.019,60.223 39.083 C 59.763 39.149,59.507 39.405,59.507 39.799 C 59.507 40.186,59.270 40.431,58.870 40.461 C 58.520 40.488,58.055 40.523,57.836 40.541 C 57.617 40.558,57.336 40.823,57.210 41.130 C 57.084 41.436,56.767 41.687,56.505 41.687 C 55.910 41.687,55.370 42.660,55.370 43.734 C 55.370 44.338,55.205 44.551,54.733 44.551 C 54.309 44.551,54.097 44.763,54.097 45.187 C 54.097 45.537,53.886 45.823,53.627 45.823 C 53.369 45.823,52.923 46.181,52.636 46.619 C 52.349 47.056,51.932 47.414,51.709 47.414 C 51.486 47.414,51.310 47.593,51.319 47.812 C 51.379 49.431,51.201 49.960,50.597 49.960 C 50.055 49.960,49.960 50.172,49.960 51.392 C 49.960 52.612,49.866 52.824,49.324 52.824 C 48.793 52.824,48.687 53.036,48.687 54.097 C 48.687 55.248,48.566 55.424,47.825 55.346 C 47.440 55.306,47.142 56.415,47.119 57.974 C 47.101 59.164,46.971 59.504,46.471 59.662 C 45.911 59.840,45.836 60.203,45.755 63.105 C 45.681 65.736,45.574 66.348,45.187 66.348 C 44.775 66.348,44.698 67.650,44.625 75.815 C 44.542 85.121,44.552 85.282,45.182 85.282 C 45.785 85.282,45.823 85.486,45.823 88.653 C 45.823 91.731,45.878 92.039,46.446 92.187 C 46.964 92.323,47.083 92.677,47.161 94.305 C 47.246 96.057,47.330 96.272,47.971 96.363 C 48.615 96.454,48.687 96.641,48.687 98.222 C 48.687 99.712,48.784 100.005,49.324 100.146 C 49.838 100.281,49.960 100.581,49.960 101.708 C 49.960 102.890,50.057 103.103,50.597 103.103 C 51.051 103.103,51.247 103.331,51.281 103.898 C 51.307 104.336,51.343 104.873,51.360 105.091 C 51.378 105.310,51.597 105.572,51.848 105.673 C 52.098 105.774,52.464 106.418,52.661 107.105 C 52.917 108.001,53.170 108.327,53.558 108.260 C 53.948 108.192,54.097 108.390,54.097 108.976 C 54.097 109.573,54.264 109.785,54.733 109.785 C 55.167 109.785,55.370 109.997,55.370 110.451 C 55.370 110.837,55.623 111.184,55.972 111.275 C 56.491 111.411,57.138 112.909,57.007 113.672 C 56.986 113.797,57.159 113.826,57.391 113.737 C 57.909 113.538,58.685 114.404,58.402 114.863 C 58.284 115.052,58.477 115.195,58.852 115.195 C 59.212 115.195,59.507 115.375,59.507 115.595 C 59.507 116.359,61.710 118.059,62.700 118.059 C 63.494 118.059,63.644 118.185,63.644 118.854 C 63.644 119.438,63.813 119.650,64.280 119.650 C 64.704 119.650,64.916 119.862,64.916 120.286 C 64.916 120.698,65.129 120.923,65.516 120.923 C 65.847 120.923,66.189 121.207,66.282 121.559 C 66.414 122.065,66.716 122.196,67.751 122.196 C 68.841 122.196,69.053 122.299,69.053 122.832 C 69.053 123.299,69.265 123.469,69.849 123.469 C 70.286 123.469,70.627 123.576,70.607 123.707 C 70.488 124.458,70.767 124.735,71.838 124.935 C 72.494 125.057,73.218 125.421,73.447 125.745 C 73.764 126.193,74.272 126.333,75.595 126.333 C 77.115 126.333,77.327 126.410,77.327 126.969 C 77.327 127.511,77.539 127.605,78.759 127.605 C 79.944 127.605,80.191 127.708,80.191 128.199 C 80.191 128.827,81.739 129.196,84.372 129.196 C 85.273 129.196,85.601 129.329,85.601 129.693 C 85.601 129.965,85.744 130.100,85.919 129.992 C 86.094 129.884,86.237 129.947,86.237 130.132 C 86.237 130.318,86.344 130.452,86.476 130.432 C 88.943 130.042,96.420 130.549,96.420 131.106 C 96.420 131.717,96.632 131.742,101.830 131.742 C 107.027 131.742,107.239 131.717,107.239 131.106 C 107.239 130.550,115.313 130.036,117.820 130.432 C 117.951 130.452,118.059 130.183,118.059 129.833 C 118.059 129.268,118.271 129.196,119.953 129.196 C 122.096 129.196,123.504 128.704,123.250 128.043 C 123.126 127.720,123.393 127.605,124.272 127.605 C 125.022 127.605,125.653 127.391,125.977 127.026 C 126.260 126.708,126.742 126.355,127.049 126.241 C 127.355 126.127,127.605 125.815,127.605 125.547 C 127.605 125.120,128.421 124.874,129.310 125.033 C 129.794 125.120,130.503 124.333,130.335 123.895 C 130.231 123.624,130.410 123.469,130.827 123.469 C 131.216 123.469,131.551 123.209,131.650 122.832 C 131.742 122.480,132.084 122.196,132.416 122.196 C 132.803 122.196,133.015 121.970,133.015 121.559 C 133.015 121.132,133.227 120.923,133.662 120.923 C 134.017 120.923,134.401 120.672,134.516 120.366 C 134.630 120.060,134.983 119.622,135.301 119.393 C 135.619 119.165,135.879 118.771,135.879 118.518 C 135.879 118.266,136.165 118.059,136.516 118.059 C 136.882 118.059,137.152 117.847,137.152 117.559 C 137.152 116.966,137.945 116.094,138.228 116.377 C 138.336 116.485,138.425 115.977,138.425 115.248 C 138.425 114.038,138.496 113.922,139.239 113.922 C 139.687 113.922,139.971 113.788,139.870 113.624 C 139.768 113.461,140.046 112.966,140.487 112.525 C 140.979 112.033,141.289 111.363,141.289 110.791 C 141.289 110.138,141.473 109.811,141.904 109.699 C 142.353 109.581,142.546 109.205,142.620 108.309 C 142.688 107.474,142.874 107.080,143.198 107.080 C 143.768 107.080,144.100 106.437,144.130 105.272 C 144.145 104.710,144.370 104.349,144.789 104.216 C 145.281 104.060,145.426 103.735,145.426 102.784 C 145.426 101.869,145.576 101.507,146.012 101.368 C 146.473 101.222,146.609 100.827,146.650 99.517 C 146.689 98.249,146.853 97.748,147.337 97.415 C 147.835 97.072,147.971 96.619,147.971 95.302 C 147.971 93.780,148.045 93.607,148.765 93.426 C 149.202 93.316,149.543 93.122,149.523 92.994 C 149.264 91.309,149.622 89.419,150.199 89.419 C 150.770 89.419,150.835 89.207,150.835 87.351 C 150.835 85.495,150.901 85.282,151.472 85.282 C 152.042 85.282,152.108 85.070,152.108 83.236 C 152.108 81.356,152.166 81.182,152.824 81.088 C 153.597 80.978,153.600 80.968,153.660 78.600 C 153.692 77.285,153.800 77.009,154.281 77.009 C 154.769 77.009,154.875 76.713,154.937 75.186 C 155.014 73.280,155.104 73.031,155.715 73.031 C 155.946 73.031,156.121 72.309,156.179 71.112 C 156.258 69.486,156.379 69.146,156.974 68.884 C 157.555 68.630,157.695 68.272,157.778 66.831 C 157.873 65.193,158.273 64.437,158.855 64.797 C 158.995 64.883,159.109 64.311,159.109 63.525 C 159.109 62.380,159.234 62.056,159.739 61.895 C 160.085 61.785,160.355 61.597,160.338 61.476 C 160.096 59.780,160.443 57.916,161.000 57.916 C 161.500 57.916,161.637 57.657,161.716 56.563 C 161.792 55.507,161.935 55.220,162.367 55.254 C 162.672 55.278,162.848 55.181,162.760 55.038 C 162.671 54.895,162.745 54.688,162.922 54.578 C 163.100 54.468,163.246 53.991,163.246 53.518 C 163.246 53.004,163.501 52.500,163.882 52.262 C 164.317 51.990,164.519 51.520,164.519 50.775 C 164.519 50.017,164.688 49.631,165.076 49.507 C 165.429 49.395,165.658 48.959,165.704 48.317 C 165.776 47.282,166.316 46.671,166.860 47.007 C 167.026 47.110,167.061 47.029,166.936 46.827 C 166.811 46.625,166.860 46.460,167.046 46.460 C 167.231 46.460,167.383 45.959,167.383 45.346 C 167.383 44.444,167.504 44.232,168.019 44.232 C 168.443 44.232,168.656 44.020,168.656 43.596 C 168.656 43.246,168.862 42.959,169.114 42.959 C 169.366 42.959,169.675 42.794,169.800 42.592 C 169.952 42.346,169.879 42.309,169.580 42.480 C 169.218 42.686,169.209 42.653,169.531 42.306 C 169.749 42.070,169.928 41.548,169.928 41.146 C 169.928 40.626,170.113 40.414,170.565 40.414 C 171.032 40.414,171.201 40.202,171.201 39.618 C 171.201 39.035,171.371 38.823,171.838 38.823 C 172.188 38.823,172.474 38.686,172.474 38.519 C 172.474 38.352,172.834 37.855,173.273 37.416 C 173.713 36.976,174.054 36.504,174.031 36.367 C 173.862 35.346,174.125 34.686,174.702 34.686 C 175.126 34.686,175.338 34.474,175.338 34.049 C 175.338 33.583,175.550 33.413,176.134 33.413 C 176.717 33.413,176.929 33.243,176.929 32.776 C 176.929 32.352,177.141 32.140,177.566 32.140 C 177.990 32.140,178.202 31.928,178.202 31.504 C 178.202 31.079,178.414 30.867,178.839 30.867 C 179.305 30.867,179.475 30.655,179.475 30.072 C 179.475 29.303,179.956 29.083,181.281 29.247 C 181.486 29.272,181.746 29.003,181.859 28.648 C 181.971 28.293,182.261 28.003,182.501 28.003 C 182.742 28.003,183.131 27.729,183.366 27.394 C 183.601 27.059,184.325 26.685,184.975 26.563 C 185.844 26.400,186.158 26.182,186.158 25.740 C 186.158 25.342,186.383 25.139,186.824 25.139 C 187.222 25.139,187.557 24.884,187.656 24.503 C 187.787 24.004,188.090 23.866,189.059 23.866 C 190.082 23.866,190.294 23.757,190.294 23.230 C 190.294 22.671,190.506 22.593,192.045 22.593 C 193.064 22.593,193.795 22.453,193.795 22.256 C 193.795 22.071,193.941 22.010,194.121 22.121 C 194.300 22.232,194.408 22.138,194.360 21.912 C 194.300 21.631,194.855 21.435,196.114 21.292 C 198.012 21.078,198.409 20.899,198.409 20.260 C 198.409 20.022,199.203 19.854,200.623 19.793 C 201.841 19.740,203.050 19.526,203.310 19.316 C 203.691 19.007,203.730 19.020,203.512 19.381 C 203.329 19.684,203.361 19.755,203.610 19.601 C 203.812 19.476,203.978 19.167,203.978 18.915 C 203.978 18.523,206.062 18.457,218.457 18.457 C 232.723 18.457,232.936 18.466,232.936 19.093 C 232.936 19.696,233.148 19.730,236.943 19.730 C 240.666 19.730,240.962 19.774,241.115 20.358 C 241.379 21.368,245.028 21.514,245.028 20.514 C 245.028 20.412,244.874 20.423,244.686 20.540 C 244.498 20.656,244.534 20.440,244.766 20.060 C 245.135 19.455,245.106 19.303,244.535 18.834 C 244.176 18.539,243.787 18.047,243.670 17.741 C 243.553 17.434,243.166 17.184,242.810 17.184 C 242.455 17.184,242.164 16.986,242.164 16.744 C 242.164 16.280,241.229 15.923,239.997 15.915 C 239.593 15.913,239.333 15.797,239.419 15.657 C 239.797 15.045,238.924 14.527,237.288 14.391 C 235.912 14.277,235.502 14.117,235.379 13.646 C 235.258 13.182,234.928 13.047,233.920 13.047 C 232.829 13.047,232.617 12.943,232.617 12.411 C 232.617 12.060,232.510 11.791,232.379 11.812 C 231.464 11.956,228.473 11.725,228.600 11.520 C 229.133 10.658,228.027 10.244,225.097 10.207 C 223.424 10.186,223.121 10.092,222.979 9.547 C 222.826 8.963,222.545 8.910,219.600 8.910 C 216.600 8.910,216.388 8.868,216.388 8.274 C 216.388 7.648,216.176 7.637,203.630 7.637 C 191.139 7.637,190.868 7.651,190.705 8.274 " stroke="none" fill="#049ce4" fill-rule="evenodd"></path><path id="path1" d="M378.998 0.284 C 378.998 0.440,378.640 0.657,378.202 0.767 C 377.688 0.896,377.407 1.190,377.407 1.597 C 377.407 2.052,377.192 2.228,376.637 2.228 C 375.596 2.228,374.826 2.550,375.040 2.896 C 375.136 3.052,374.861 3.341,374.428 3.538 C 373.996 3.735,373.564 4.195,373.468 4.559 C 373.373 4.924,373.195 5.123,373.073 5.001 C 372.776 4.704,371.956 5.404,372.179 5.765 C 372.275 5.920,371.987 6.187,371.539 6.357 C 371.091 6.527,370.724 6.885,370.724 7.152 C 370.724 7.425,370.446 7.637,370.088 7.637 C 369.663 7.637,369.451 7.849,369.451 8.274 C 369.451 8.769,369.239 8.910,368.493 8.910 C 367.929 8.910,367.311 9.172,366.991 9.547 C 366.691 9.897,366.265 10.183,366.045 10.183 C 365.825 10.183,365.555 10.541,365.445 10.979 C 365.320 11.476,365.020 11.774,364.643 11.774 C 364.254 11.774,364.041 11.998,364.041 12.411 C 364.041 12.911,363.829 13.047,363.044 13.047 C 362.481 13.047,361.824 13.299,361.533 13.626 C 361.250 13.944,360.768 14.298,360.461 14.411 C 360.155 14.525,359.905 14.909,359.905 15.264 C 359.905 15.853,358.941 16.144,357.617 15.955 C 357.496 15.938,357.313 16.192,357.209 16.519 C 357.105 16.847,356.738 17.189,356.394 17.279 C 356.049 17.369,355.768 17.671,355.768 17.950 C 355.768 18.231,355.485 18.474,355.131 18.496 C 354.781 18.518,354.352 18.572,354.177 18.616 C 354.002 18.660,353.715 18.713,353.540 18.735 C 353.365 18.757,353.222 18.980,353.222 19.230 C 353.222 19.480,352.900 19.731,352.506 19.787 C 352.046 19.852,351.754 20.144,351.688 20.605 C 351.602 21.212,351.392 21.321,350.306 21.321 C 349.293 21.321,348.991 21.454,348.859 21.957 C 348.735 22.432,348.425 22.593,347.637 22.593 C 346.862 22.593,346.529 22.762,346.380 23.230 C 346.269 23.580,345.902 23.884,345.563 23.906 C 345.225 23.928,344.805 23.982,344.630 24.025 C 344.455 24.069,344.178 24.123,344.015 24.145 C 343.852 24.167,343.627 24.471,343.516 24.821 C 343.365 25.299,343.035 25.457,342.192 25.457 C 341.338 25.457,341.030 25.609,340.904 26.094 C 340.769 26.608,340.470 26.730,339.342 26.730 C 338.160 26.730,337.947 26.827,337.947 27.367 C 337.947 27.868,337.727 28.008,336.913 28.027 C 334.724 28.077,333.555 28.606,334.010 29.340 C 334.096 29.480,333.514 29.594,332.716 29.594 C 331.477 29.594,331.265 29.687,331.265 30.231 C 331.265 30.802,331.053 30.867,329.196 30.867 C 327.340 30.867,327.128 30.932,327.128 31.504 C 327.128 32.081,326.914 32.140,324.821 32.145 C 322.548 32.150,321.561 32.417,321.771 32.971 C 321.829 33.127,321.233 33.289,320.446 33.333 C 317.204 33.511,316.309 33.739,316.309 34.387 C 316.309 34.934,310.673 35.404,308.564 35.033 C 308.418 35.007,308.222 35.276,308.130 35.631 C 307.867 36.634,280.511 36.649,280.193 35.647 C 280.083 35.300,279.894 35.031,279.774 35.048 C 277.343 35.394,270.804 34.925,270.804 34.405 C 270.804 33.657,270.120 33.516,266.115 33.435 C 263.475 33.382,262.978 33.286,262.607 32.757 C 262.230 32.218,261.781 32.140,259.049 32.140 C 256.189 32.140,255.907 32.086,255.755 31.504 C 255.603 30.921,255.321 30.867,252.414 30.867 C 249.507 30.867,249.225 30.813,249.072 30.231 C 248.922 29.656,248.638 29.594,246.153 29.594 C 244.638 29.594,243.470 29.480,243.556 29.340 C 244.123 28.422,242.735 28.068,238.425 28.029 C 235.714 28.005,235.481 27.953,235.481 27.374 C 235.481 26.776,235.218 26.741,229.992 26.658 C 225.364 26.585,224.503 26.496,224.503 26.094 C 224.502 25.254,211.399 25.271,211.132 26.112 C 210.954 26.672,210.624 26.730,207.616 26.730 C 204.535 26.730,204.296 26.775,204.296 27.352 C 204.296 27.891,204.035 27.985,202.307 28.068 C 200.534 28.152,200.307 28.238,200.218 28.864 C 200.130 29.488,199.903 29.575,198.150 29.659 C 196.916 29.718,196.181 29.892,196.181 30.125 C 196.181 30.689,195.923 30.840,194.812 30.925 C 194.160 30.975,193.730 31.207,193.614 31.571 C 193.515 31.884,193.143 32.140,192.789 32.140 C 192.412 32.140,192.075 32.404,191.978 32.776 C 191.886 33.129,191.544 33.413,191.212 33.413 C 190.785 33.413,190.613 33.641,190.613 34.208 C 190.613 34.834,190.443 35.012,189.817 35.044 C 188.447 35.112,188.344 35.149,187.927 35.720 C 187.703 36.026,187.353 36.277,187.149 36.277 C 186.945 36.277,186.642 36.636,186.475 37.075 C 186.308 37.514,185.993 37.836,185.774 37.791 C 185.556 37.746,185.329 38.022,185.270 38.405 C 185.204 38.836,184.898 39.139,184.467 39.201 C 184.084 39.255,183.771 39.491,183.771 39.723 C 183.771 39.956,183.413 40.345,182.975 40.587 C 182.538 40.829,182.323 41.033,182.498 41.039 C 182.673 41.046,182.442 41.373,181.984 41.766 C 181.082 42.542,181.066 42.577,181.066 43.755 C 181.066 44.391,180.907 44.551,180.270 44.551 C 179.723 44.551,179.475 44.725,179.475 45.110 C 179.475 45.418,179.189 45.849,178.839 46.068 C 178.488 46.286,178.202 46.669,178.202 46.918 C 178.202 47.168,177.919 47.462,177.572 47.572 C 177.226 47.682,176.956 47.870,176.973 47.991 C 177.127 49.069,176.850 49.907,176.293 50.052 C 175.787 50.185,175.656 50.486,175.656 51.522 C 175.656 52.699,175.580 52.824,174.861 52.824 C 174.149 52.824,174.065 52.954,174.065 54.060 C 174.065 55.028,173.927 55.332,173.429 55.462 C 173.048 55.562,172.792 55.896,172.792 56.295 C 172.792 56.891,172.469 57.111,171.758 56.999 C 171.627 56.978,171.536 57.068,171.557 57.200 C 171.833 58.948,171.461 60.744,170.804 60.837 C 170.210 60.921,170.071 61.167,169.990 62.275 C 169.919 63.263,169.733 63.663,169.281 63.806 C 168.944 63.913,168.683 64.099,168.700 64.220 C 168.931 65.847,168.588 67.724,168.033 67.869 C 167.487 68.012,167.398 68.362,167.317 70.691 C 167.243 72.800,167.125 73.349,166.746 73.349 C 165.893 73.349,165.876 93.121,166.729 93.392 C 167.277 93.565,167.369 93.926,167.450 96.199 C 167.523 98.264,167.641 98.807,168.019 98.807 C 168.355 98.807,168.526 99.217,168.596 100.194 C 168.672 101.250,168.843 101.620,169.312 101.743 C 169.788 101.867,169.928 102.185,169.928 103.140 C 169.928 104.246,170.012 104.375,170.724 104.375 C 171.443 104.375,171.519 104.501,171.519 105.678 C 171.519 106.713,171.650 107.015,172.156 107.147 C 172.560 107.253,172.792 107.581,172.792 108.046 C 172.792 109.095,173.113 109.785,173.600 109.785 C 173.831 109.785,174.067 110.107,174.123 110.501 C 174.188 110.961,174.480 111.254,174.940 111.319 C 175.400 111.384,175.656 111.640,175.656 112.035 C 175.656 112.437,175.876 112.649,176.293 112.649 C 176.868 112.649,177.141 113.439,176.973 114.619 C 176.956 114.739,177.226 114.928,177.572 115.038 C 177.919 115.148,178.202 115.419,178.202 115.640 C 178.202 115.861,178.558 116.232,178.992 116.465 C 179.427 116.698,179.867 117.153,179.970 117.478 C 180.073 117.803,180.280 117.992,180.431 117.899 C 180.716 117.723,181.212 118.315,181.220 118.842 C 181.223 119.011,181.748 119.272,182.388 119.424 C 183.121 119.597,183.609 119.924,183.710 120.311 C 183.804 120.669,184.147 120.923,184.537 120.923 C 184.991 120.923,185.203 121.125,185.203 121.559 C 185.203 121.984,185.415 122.196,185.839 122.196 C 186.264 122.196,186.476 122.408,186.476 122.832 C 186.476 123.360,186.688 123.469,187.714 123.469 C 188.770 123.469,188.982 123.586,189.152 124.264 C 189.269 124.731,189.580 125.060,189.906 125.060 C 190.210 125.060,190.638 125.346,190.857 125.696 C 191.107 126.097,191.599 126.333,192.185 126.333 C 192.827 126.333,193.176 126.524,193.312 126.951 C 193.458 127.411,193.852 127.595,194.845 127.667 C 195.732 127.732,196.181 127.914,196.181 128.210 C 196.181 128.791,197.134 129.146,198.770 129.174 C 199.807 129.192,200.120 129.331,200.251 129.833 C 200.394 130.380,200.685 130.469,202.320 130.469 C 203.937 130.469,204.246 130.562,204.384 131.089 C 204.540 131.687,204.912 131.710,214.843 131.725 C 224.485 131.740,226.149 131.618,225.882 130.911 C 225.824 130.756,226.377 130.585,227.112 130.531 C 228.105 130.459,228.499 130.275,228.645 129.815 C 228.766 129.434,229.128 129.196,229.590 129.196 C 230.755 129.196,231.344 128.864,231.344 128.208 C 231.344 127.818,231.569 127.605,231.981 127.605 C 232.405 127.605,232.617 127.393,232.617 126.969 C 232.617 126.535,232.829 126.333,233.284 126.333 C 233.682 126.333,234.017 126.077,234.116 125.696 C 234.208 125.344,234.550 125.060,234.882 125.060 C 235.309 125.060,235.481 124.831,235.481 124.264 C 235.481 123.681,235.651 123.469,236.118 123.469 C 236.646 123.469,236.754 123.256,236.754 122.218 C 236.754 121.163,236.866 120.951,237.470 120.865 C 238.064 120.781,238.203 120.535,238.283 119.427 C 238.355 118.434,238.539 118.040,238.999 117.894 C 239.586 117.708,239.618 117.357,239.618 111.196 L 239.618 104.694 238.345 104.694 C 237.285 104.694,237.072 104.800,237.072 105.330 C 237.072 105.786,236.847 105.978,236.277 106.006 C 234.917 106.074,234.804 106.112,234.421 106.623 C 234.217 106.896,233.799 107.214,233.492 107.329 C 233.186 107.444,232.936 107.757,232.936 108.025 C 232.936 108.383,232.576 108.518,231.583 108.535 C 229.914 108.562,228.958 108.913,228.958 109.499 C 228.958 109.849,228.190 109.964,225.378 110.034 C 222.031 110.118,221.798 110.085,221.798 109.515 C 221.798 108.893,221.006 108.525,219.650 108.517 C 219.256 108.514,218.951 108.405,218.972 108.274 C 219.083 107.570,218.867 107.239,218.298 107.239 C 217.873 107.239,217.661 107.027,217.661 106.603 C 217.661 106.179,217.449 105.967,217.025 105.967 C 216.654 105.967,216.388 105.754,216.388 105.459 C 216.388 105.181,216.102 104.877,215.752 104.786 C 215.247 104.654,215.113 104.347,215.104 103.304 C 215.092 101.908,214.531 100.560,214.002 100.657 C 213.820 100.691,213.643 99.715,213.589 98.381 C 213.531 96.939,213.613 96.119,213.802 96.236 C 214.387 96.597,214.993 95.536,215.072 94.013 C 215.157 92.355,215.331 91.864,215.740 92.117 C 216.086 92.331,216.388 91.507,216.388 90.348 C 216.388 89.631,216.534 89.419,217.025 89.419 C 217.437 89.419,217.661 89.207,217.661 88.817 C 217.661 88.441,217.959 88.141,218.457 88.016 C 218.970 87.887,219.252 87.593,219.252 87.186 C 219.252 86.839,219.360 86.572,219.491 86.593 C 220.194 86.704,220.525 86.489,220.525 85.919 C 220.525 85.549,220.737 85.282,221.032 85.282 C 221.311 85.282,221.614 84.996,221.706 84.646 C 221.798 84.294,222.140 84.010,222.471 84.010 C 222.845 84.010,223.071 83.785,223.071 83.414 C 223.071 82.965,223.384 82.768,224.344 82.614 C 225.482 82.432,225.776 82.156,225.654 81.384 C 225.634 81.253,225.975 81.146,226.412 81.146 C 226.995 81.146,227.208 80.976,227.208 80.509 C 227.208 79.967,227.420 79.873,228.640 79.873 C 229.859 79.873,230.072 79.778,230.072 79.236 C 230.072 78.706,230.284 78.600,231.344 78.600 C 232.490 78.600,232.617 78.520,232.617 77.804 C 232.617 77.037,232.692 77.009,234.686 77.009 C 236.542 77.009,236.754 76.943,236.754 76.372 C 236.754 75.806,236.966 75.736,238.693 75.736 C 240.365 75.736,240.655 75.648,240.799 75.099 C 240.947 74.531,241.251 74.459,243.633 74.423 C 245.100 74.401,246.444 74.348,246.619 74.304 C 246.794 74.260,247.080 74.206,247.255 74.185 C 247.430 74.163,247.574 73.930,247.574 73.667 C 247.574 73.273,248.210 73.183,251.233 73.150 C 255.933 73.099,255.672 73.147,255.790 72.315 L 255.892 71.599 274.326 71.599 C 292.548 71.599,292.761 71.592,292.761 70.963 C 292.761 70.357,292.973 70.326,297.198 70.326 C 301.238 70.326,301.673 70.271,302.070 69.705 C 302.423 69.201,302.952 69.066,304.872 68.989 C 306.975 68.905,307.275 68.814,307.554 68.178 C 307.831 67.545,308.099 67.462,309.861 67.462 C 311.641 67.462,311.854 67.394,311.854 66.826 C 311.854 66.255,312.066 66.189,313.922 66.189 C 315.778 66.189,315.990 66.124,315.990 65.553 C 315.990 65.007,316.216 64.911,317.582 64.877 C 319.901 64.819,319.968 64.802,319.968 64.284 C 319.968 64.024,320.255 63.768,320.605 63.715 C 322.234 63.469,322.645 63.279,322.832 62.688 C 322.989 62.195,323.314 62.053,324.286 62.053 C 325.325 62.053,325.537 61.945,325.537 61.416 C 325.537 60.874,325.749 60.780,326.969 60.780 C 328.174 60.780,328.401 60.682,328.401 60.162 C 328.401 59.679,328.659 59.524,329.594 59.446 C 330.553 59.367,330.808 59.207,330.889 58.632 C 330.975 58.030,331.188 57.916,332.220 57.916 C 333.170 57.916,333.495 57.771,333.652 57.279 C 333.763 56.929,334.130 56.643,334.469 56.643 C 334.871 56.643,335.084 56.423,335.084 56.006 C 335.084 55.474,335.296 55.370,336.386 55.370 C 337.421 55.370,337.723 55.239,337.855 54.733 C 337.947 54.381,338.289 54.097,338.621 54.097 C 339.048 54.097,339.220 53.868,339.220 53.302 C 339.220 52.557,339.880 52.275,341.190 52.462 C 341.310 52.479,341.499 52.210,341.609 51.863 C 341.719 51.517,342.006 51.233,342.247 51.233 C 342.488 51.233,342.872 50.973,343.100 50.655 C 343.329 50.337,343.767 49.984,344.073 49.870 C 344.379 49.755,344.630 49.371,344.630 49.016 C 344.630 48.572,344.839 48.369,345.296 48.369 C 345.695 48.369,346.029 48.113,346.129 47.733 C 346.253 47.258,346.563 47.096,347.351 47.096 C 348.117 47.096,348.460 46.927,348.603 46.476 C 348.711 46.135,349.076 45.768,349.413 45.661 C 349.751 45.554,350.013 45.368,349.996 45.247 C 349.900 44.573,350.116 44.265,350.756 44.167 C 351.150 44.107,351.435 43.879,351.390 43.661 C 351.345 43.442,351.667 43.127,352.106 42.960 C 352.545 42.793,352.904 42.439,352.904 42.172 C 352.904 41.905,353.122 41.687,353.389 41.687 C 353.656 41.687,354.014 41.320,354.184 40.872 C 354.354 40.424,354.621 40.136,354.776 40.232 C 354.932 40.328,355.236 40.193,355.452 39.933 C 355.669 39.672,355.739 39.459,355.609 39.459 C 355.478 39.459,355.549 39.246,355.765 38.985 C 355.981 38.725,356.285 38.590,356.440 38.686 C 356.595 38.782,356.722 38.708,356.722 38.521 C 356.722 38.335,357.080 37.871,357.518 37.490 C 357.955 37.110,358.313 36.610,358.313 36.379 C 358.313 36.148,358.600 35.959,358.950 35.959 C 359.300 35.959,359.569 35.851,359.549 35.720 C 359.321 34.277,359.633 33.413,360.382 33.413 C 360.965 33.413,361.177 33.243,361.177 32.776 C 361.177 32.360,361.390 32.140,361.792 32.140 C 362.186 32.140,362.442 31.884,362.508 31.424 C 362.564 31.030,362.818 30.708,363.072 30.708 C 363.327 30.708,363.626 30.350,363.737 29.912 C 363.848 29.475,364.100 29.151,364.297 29.193 C 364.493 29.234,364.822 28.709,365.027 28.025 C 365.249 27.284,365.639 26.720,365.993 26.627 C 366.334 26.538,366.587 26.188,366.587 25.805 C 366.587 25.359,366.790 25.139,367.201 25.139 C 367.596 25.139,367.852 24.883,367.917 24.423 C 367.973 24.029,368.234 23.707,368.496 23.707 C 368.818 23.707,369.006 23.319,369.073 22.514 C 369.148 21.605,369.310 21.321,369.754 21.321 C 370.106 21.321,370.414 21.014,370.531 20.546 C 370.638 20.120,371.009 19.682,371.355 19.572 C 371.701 19.462,371.970 19.274,371.953 19.153 C 371.799 18.075,372.079 17.201,372.633 17.025 C 372.983 16.914,373.270 16.546,373.270 16.208 C 373.270 15.657,373.606 15.445,374.304 15.555 C 374.435 15.576,374.523 15.485,374.500 15.354 C 374.384 14.704,374.990 13.047,375.344 13.047 C 375.842 13.047,376.134 12.333,376.134 11.112 C 376.134 10.395,376.279 10.183,376.770 10.183 C 377.194 10.183,377.407 9.971,377.407 9.547 C 377.407 9.196,377.539 8.910,377.702 8.910 C 378.307 8.910,378.998 7.880,378.998 6.978 C 378.998 6.353,379.158 6.046,379.485 6.046 C 379.753 6.046,380.065 5.796,380.179 5.489 C 380.292 5.183,380.646 4.701,380.964 4.418 C 381.291 4.127,381.543 3.469,381.543 2.906 C 381.543 2.121,381.679 1.909,382.180 1.909 C 382.675 1.909,382.816 1.697,382.816 0.955 L 382.816 0.000 380.907 0.000 C 379.857 0.000,378.998 0.128,378.998 0.284 " stroke="none" fill="#accc0c" fill-rule="evenodd"></path><path id="path2" d="M70.326 231.185 L 70.326 318.218 100.398 318.218 L 130.469 318.218 130.469 231.185 L 130.469 144.153 100.398 144.153 L 70.326 144.153 70.326 231.185 M167.383 231.184 L 167.383 318.218 198.091 318.218 L 228.800 318.218 228.720 231.265 L 228.640 144.312 198.011 144.231 L 167.383 144.150 167.383 231.184 " stroke="none" fill="#1c1c1c" fill-rule="evenodd"></path><path id="path3" d="" stroke="none" fill="#58b8b4" fill-rule="evenodd"></path><path id="path4" d="" stroke="none" fill="#684844" fill-rule="evenodd"></path></g></svg>